<?xml version="1.0" encoding="UTF-8" standalone="no" ?>
<!DOCTYPE svg PUBLIC "-//W3C//DTD SVG 1.1//EN" "http://www.w3.org/Graphics/SVG/1.1/DTD/svg11.dtd">
<svg xmlns="http://www.w3.org/2000/svg" xmlns:xlink="http://www.w3.org/1999/xlink" version="1.1" width="445" height="445" viewBox="0 0 445 445" xml:space="preserve">
<desc>Created with Fabric.js 1.7.22</desc>
<defs>
</defs>
<g id="icon" style="stroke: none; stroke-width: 1; stroke-dasharray: none; stroke-linecap: butt; stroke-linejoin: miter; stroke-miterlimit: 10; fill: none; fill-rule: nonzero; opacity: 1;" transform="translate(-2.4722222222222285 -2.4722222222222285) scale(4.94 4.94)" >
	<path d="M 51.544 10.871 c -3.057 -4.773 -10.031 -4.773 -13.088 0 L 1.24 68.973 c -3.313 5.173 0.401 11.963 6.544 11.963 H 45 h 37.216 c 6.143 0 9.857 -6.791 6.544 -11.963 L 51.544 10.871 z" style="stroke: none; stroke-width: 1; stroke-dasharray: none; stroke-linecap: butt; stroke-linejoin: miter; stroke-miterlimit: 10; fill: rgb(178,0,0); fill-rule: nonzero; opacity: 1;" transform=" matrix(1 0 0 1 0 0) " stroke-linecap="round" />
	<path d="M 48.91 14.885 c -1.827 -2.852 -5.993 -2.852 -7.819 0 L 5.848 69.905 c -1.979 3.09 0.24 7.147 3.91 7.147 H 45 h 35.242 c 3.67 0 5.889 -4.057 3.91 -7.147 L 48.91 14.885 z" style="stroke: none; stroke-width: 1; stroke-dasharray: none; stroke-linecap: butt; stroke-linejoin: miter; stroke-miterlimit: 10; fill: rgb(240,240,240); fill-rule: nonzero; opacity: 1;" transform=" matrix(1 0 0 1 0 0) " stroke-linecap="round" />
	<path d="M 63.745 58.15 v -8.77 h -3.519 v 2.648 H 58.92 h -2.075 v 0.051 c -0.286 -2.027 -1.072 -3.893 -2.241 -5.461 l 0 0 l 1.467 -1.467 l 0.923 -0.923 l 1.872 1.872 l 2.488 -2.488 l -6.201 -6.201 l -2.488 2.488 l 1.872 1.872 l -0.923 0.923 l -1.467 1.467 l 0 0 c -1.567 -1.168 -3.433 -1.954 -5.459 -2.241 h 0.049 v -2.075 v -1.306 h 2.648 V 35.02 h -8.77 v 3.519 h 2.648 v 1.306 v 2.074 h 0.053 c -2.028 0.286 -3.895 1.072 -5.463 2.241 l 0 0 l -1.467 -1.467 l -0.923 -0.923 l 1.872 -1.872 l -2.488 -2.488 l -6.201 6.201 l 2.488 2.488 l 1.872 -1.872 l 0.923 0.923 l 1.467 1.467 l 0 0 c -1.168 1.567 -1.954 3.433 -2.241 5.459 v -0.049 H 31.08 h -1.306 v -2.648 h -3.519 v 8.77 h 3.519 v -2.648 h 1.306 h 2.074 v -0.053 c 0.286 2.028 1.072 3.895 2.241 5.463 l 0 0 l -1.467 1.467 l -0.923 0.923 l -1.872 -1.872 l -2.488 2.488 l 6.201 6.201 l 2.488 -2.488 l -1.872 -1.872 l 0.923 -0.923 l 1.467 -1.467 c 1.567 1.168 3.432 1.954 5.458 2.24 h -0.048 v 2.075 v 1.306 h -2.648 v 3.519 h 8.77 v -3.519 h -2.648 v -1.306 V 65.61 h -0.051 c 2.027 -0.286 3.893 -1.072 5.461 -2.241 l 0 0 l 1.467 1.467 l 0.923 0.923 l -1.872 1.872 l 2.488 2.488 l 6.201 -6.202 l -2.488 -2.488 l -1.872 1.872 l -0.923 -0.923 l -1.467 -1.467 l 0 0 c 1.168 -1.567 1.954 -3.432 2.24 -5.458 v 0.048 h 2.075 h 1.306 v 2.648 H 63.745 z M 45 62.658 c -4.912 0 -8.894 -3.982 -8.894 -8.894 s 3.982 -8.894 8.894 -8.894 s 8.894 3.982 8.894 8.894 S 49.912 62.658 45 62.658 z" style="stroke: none; stroke-width: 1; stroke-dasharray: none; stroke-linecap: butt; stroke-linejoin: miter; stroke-miterlimit: 10; fill: rgb(178,0,0); fill-rule: nonzero; opacity: 1;" transform=" matrix(1 0 0 1 0 0) " stroke-linecap="round" />
</g>
</svg>